<svg width="395" height="280" fill="none" xmlns="http://www.w3.org/2000/svg"><path opacity=".6" d="M129.563 136.426a4.075 4.075 0 0 1 3.751-2.722c18.858-.455 101.349-4.258 148.882-4.501a3.95 3.95 0 0 1 3.933 4.534c-7.741 51.747-24.858 102.855-41.601 143.576a3.953 3.953 0 0 1-3.994 2.449c-36.254-2.991-113.979-9.435-159.487-12.76-2.793-.204-4.499-3.136-3.326-5.678 18.643-40.395 36.212-80.729 51.842-124.898Z" fill="#E4EEF9"/><g opacity=".89"><path opacity=".89" d="M247.69 213.556c.837.022 1.52-.496 1.81-1.282l5.715-15.482a2 2 0 0 0-1.821-2.692l-123.01-3.393c-.981-.027-1.847.659-2.13 1.599-.948 3.139-3.093 8.72-5.07 13.916-.494 1.298.416 2.696 1.803 2.734 19.554.543 109.72 4.258 122.703 4.6ZM233.228 252.209c.84.045 1.525-.475 1.812-1.265l9.527-26.198a2 2 0 0 0-1.797-2.682l-121.87-5.026c-.991-.04-1.894.643-2.221 1.579-1.543 4.413-6.114 14.977-8.845 21.611a2.015 2.015 0 0 0 1.754 2.783c19.497 1.09 108.697 8.51 121.64 9.198Z" fill="#A9C9EA"/><g opacity=".89"><path opacity=".89" d="M212.162 167.479c-2.605 10.94-13.284 17.842-23.963 15.368-10.549-2.475-16.279-13.024-13.675-23.963 2.605-10.94 12.112-17.321 23.052-15.889 10.939 1.433 17.19 13.545 14.586 24.484Z" fill="#A9C9EA"/><path opacity=".89" d="m198.227 178.549-1.042 4.428c-5.079 1.172-10.549.39-15.237-2.735-.521-.391-1.172-.781-1.693-1.302l1.042-4.428c1.172-4.819 5.86-7.814 10.548-6.773 2.345.521 4.168 2.084 5.34 4.038 1.302 1.823 1.693 4.297 1.042 6.772ZM200.441 160.446c-.912 3.777-4.559 6.121-8.075 5.21-3.646-.912-5.86-4.558-4.949-8.335.912-3.777 4.558-5.861 8.075-5.209 3.776.651 5.86 4.558 4.949 8.334Z" fill="#E4EEF9"/></g></g><path opacity=".56" d="M262.953 151.2c.651 17.191 6.382 22.791 15.238 31.777 1.693 1.693 5.6 4.558 6.381 7.684l-3.256 15.758c-.391 1.693 1.563 2.865 2.605 1.693 6.121-7.163 18.753-18.884 33.6-15.498 44.669 9.898 78.4-16.019 73.581-45.842-4.949-31.125-30.474-48.967-65.898-47.795-35.293 1.172-63.293 20.707-62.251 52.223Z" stroke="#E4EEF9" stroke-width="5"/><path fill-rule="evenodd" clip-rule="evenodd" d="m344.276 149.006-4.739 22.118v.351c-.527 2.809-1.053 3.862-2.809 4.388-1.58.703-3.335-.702-4.739-1.58l-.176-.175-2.282-1.931-5.968-5.266-7.373 2.457-2.984.878h-.176c-1.579.351-3.686.878-4.915-.351-1.228-1.229-1.404-2.282-.702-5.091v-.351l4.74-22.118s7.197 6.495 15.096 8.075c7.548 1.58 17.027-1.404 17.027-1.404Z" fill="#F774C7"/><path d="M330.058 157.607c11.73 0 21.24-9.509 21.24-21.24 0-11.731-9.51-21.24-21.24-21.24-11.731 0-21.24 9.509-21.24 21.24 0 11.731 9.509 21.24 21.24 21.24Z" fill="#F674C7"/><path fill-rule="evenodd" clip-rule="evenodd" d="M343.925 139.351c-1.58 7.724-9.128 12.464-16.851 10.884-7.724-1.58-12.464-9.128-10.884-16.852s9.128-12.463 16.852-10.883c7.724 1.755 12.463 9.128 10.883 16.851Zm-15.798 6.32c5.09 1.053 10.181-2.107 11.234-7.197 1.054-5.091-2.106-10.182-7.197-11.235-5.09-1.053-10.181 2.107-11.234 7.197-1.054 5.091 2.106 10.181 7.197 11.235Z" fill="#F6DDEB"/><path opacity=".6" d="M1.982 187.187c4.428 12.242 16.02 20.186 30.084 22.01 1.823.26 3.517.911 4.688 2.214l9.768 10.028c1.042 1.041 2.735.26 2.735-1.173l-.13-7.423c0-2.604 1.823-4.949 4.428-5.73l2.344-.781c23.05-8.205 36.204-30.214 29.432-49.228-6.772-18.884-30.995-27.479-53.916-19.275-23.051 8.335-36.205 30.344-29.433 49.358Z" fill="#E4EEF9"/><path d="m34.54 158.667 18.5-2.996c.91-.13 1.972.391 2.123 1.172l.759 3.777c.151.781-.455 1.693-1.365 1.823l-18.5 2.996-1.516-6.772ZM38.938 178.983l18.5-2.996c.91-.13 1.971.391 2.123 1.173l.758 3.776c.152.782-.455 1.693-1.365 1.823l-18.5 2.996-1.516-6.772ZM36.815 168.825l26.688-4.298c.91-.13 1.971.391 2.123 1.172l.758 3.777c.152.781-.455 1.693-1.364 1.823l-26.689 4.298-1.516-6.772ZM28.55 156.322l.52-.13c.782-.13 1.694.391 1.824 1.172l5.73 30.735c.13.782-.39 1.693-1.172 1.823l-.52.131c-.782.13-1.694-.391-1.824-1.172l-5.73-30.735c-.26-.782.26-1.693 1.172-1.824Z" fill="#4E9668"/><g opacity=".56"><path d="M50.138 90.268c6.61 19.267 24.04 32.754 44.66 36.998 2.691.514 5.177 1.856 6.939 3.917l15.176 17.207c1.311 1.421 3.467.678 3.435-1.236l-.315-12.217c-.103-3.945 2.635-7.29 6.515-8.269l3.512-1.002c33.87-10.177 53.028-42.693 42.824-72.472-10.314-29.748-46.053-45.575-80.032-35.367-33.83 10.294-53.028 42.693-42.714 72.44Z" stroke="#E4EEF9" stroke-opacity=".56" stroke-width="5"/><path d="m76.74 70.748 63.007-19.506c2.01-.595 4.225.826 4.982 3.196.758 2.37-.245 4.742-2.255 5.337L79.467 79.28c-2.01.595-4.225-.825-4.982-3.195-.624-2.41.245-4.742 2.255-5.337ZM82.675 86.437l51.092-15.754c2.179-.642 4.539.764 5.309 3.164.77 2.4-.358 4.834-2.537 5.476L85.447 95.077c-2.18.642-4.54-.764-5.31-3.164-.624-2.442.359-4.833 2.538-5.476Z" fill="#ABD3FF"/></g><path opacity=".3" d="M213.726 85.085c1.953 8.075 7.293 14.456 14.456 18.624 2.214 1.302 3.907 3.516 4.427 6.121l1.433 6.121c.26 1.041 1.563 1.432 2.344.521l7.423-8.335s8.726 1.041 15.238-.521c20.837-5.079 36.204-22.01 31.907-39.591-2.735-10.94-16.41-29.042-54.047-19.795-20.707 5.079-27.609 19.274-23.181 36.855Z" fill="#ABD3FF"/><path d="M256.572 61.513a10.42 10.42 0 0 1 2.735 1.954c.781.781 1.302 1.823 1.693 2.865.391 1.042.391 2.214.261 3.516-.131 1.433-.782 2.865-1.693 4.037-.782 1.042-1.824 2.084-3.256 3.126-.13 0-.13.13-.261.13-.13.13-.26.13-.39.26-.652.392-1.042.782-1.433 1.043-.391.39-.651.911-.781 1.432 0 .13-.131.521-.131.912-.13 1.042-.39 1.823-.651 2.344-.39.651-1.172.781-2.214.651s-1.693-.651-1.953-1.563c-.13-.65-.261-1.562 0-2.734.13-.912.39-1.824.781-2.475.391-.781.912-1.432 1.433-2.084.521-.52 1.172-1.041 1.693-1.432.651-.521 1.302-.912 1.823-1.433.521-.39.912-.911 1.302-1.302.391-.521.652-1.042.652-1.693.13-1.042-.131-1.823-.912-2.474-.651-.521-1.563-.912-2.605-1.042h-1.432c-.521.13-1.042.26-1.693.39-.652.26-1.172.391-1.563.391-.391.13-.782.13-1.042 0-.651-.13-1.302-.39-1.693-1.042-.521-.52-.651-1.172-.521-1.953.13-.912.781-1.693 1.954-2.214a11.39 11.39 0 0 1 3.646-.912c1.172-.13 2.214-.13 3.256 0 .912.521 1.953.782 2.995 1.302Zm-5.079 25.396c.391.26.651.52.912.781.26.39.391.651.521 1.172.13.39.13.782.13 1.303 0 .39-.13.78-.391 1.172-.26.39-.521.65-.781.911a3.22 3.22 0 0 1-1.172.521c-.521.13-.782.13-1.303.13-.39 0-.781-.13-1.172-.39-.39-.26-.651-.521-.911-.782-.261-.26-.391-.65-.521-1.172-.13-.39-.13-.781-.13-1.302 0-.39.13-.781.39-1.172.261-.39.521-.651.782-.912.39-.26.651-.39 1.172-.52.521-.13.781-.13 1.302-.13.391 0 .781.13 1.172.39Z" fill="#fff"/></svg>