<svg width="552" height="280" viewBox="0 0 552 280" fill="none" xmlns="http://www.w3.org/2000/svg">
<g clip-path="url(#clip0_3063_164199)">
<rect x="-1.104" y="18.355" width="553.104" height="261.645" fill="#FAFAFA"/>
<rect x="145" y="33.4707" width="255" height="31.9013" rx="2" fill="white"/>
<rect x="197.346" y="41.9503" width="67.6542" height="10.2245" rx="2" fill="#BDC7D1"/>
<rect x="145" y="-11.1407" width="255" height="47.155" fill="#94BAE1"/>
<circle cx="175.598" cy="43.4137" r="15.847" fill="#79A9DA" stroke="white" stroke-width="2"/>
<path opacity="0.89" d="M182.401 49.843L182.402 52.8983C178.98 54.4471 174.951 54.7789 171.085 53.4578C170.648 53.2826 170.119 53.1275 169.66 52.8672L169.659 49.8119C169.685 46.4812 172.523 43.8006 176.039 43.7595C177.797 43.7389 179.358 44.4797 180.522 45.5763C181.756 46.5676 182.45 48.125 182.401 49.843Z" fill="#C6DBF1"/>
<path opacity="0.89" d="M180.496 37.8057C180.683 40.517 178.638 42.7926 175.972 42.857C173.215 42.9465 170.864 40.924 170.677 38.2127C170.49 35.5014 172.592 33.4007 175.201 33.1614C177.993 32.872 180.309 35.0944 180.496 37.8057Z" fill="#C6DBF1"/>
<rect x="145" y="203.095" width="255" height="91.4614" rx="2" fill="white"/>
<rect x="162.362" y="228.697" width="216.358" height="65.8596" fill="#EFF5FB"/>
<rect x="316.393" y="248.277" width="30.9634" height="5.54807" fill="#C6DBF1"/>
<rect x="323.553" y="235.593" width="4.82567" height="12.6842" fill="#79A9DA"/>
<rect x="335.698" y="236.718" width="4.82567" height="11.56" fill="#ABD3FF"/>
<rect x="328.378" y="234.242" width="3.71211" height="14.0356" fill="#BED5EE"/>
<rect x="331.9" y="235.593" width="3.79845" height="12.6842" fill="white"/>
<rect x="163.991" y="212.953" width="137.185" height="10.2245" rx="2" fill="#BDC7D1"/>
<path d="M182.556 277.166L145.454 308.625H396.481L357.011 277.166H182.556Z" fill="#C6DBF1"/>
<rect x="230.656" y="239.87" width="70.5199" height="43.5128" rx="6" fill="white"/>
<rect x="231.915" y="241.318" width="68.0033" height="40.6172" rx="6" fill="#BDC7D1"/>
<path opacity="0.1" d="M275.915 241.267L237.231 281.911H249.335L283.389 241.267L275.915 241.267Z" fill="#979797"/>
<path opacity="0.1" d="M293.205 241.379H290.427L257.24 281.907H263.619L293.205 241.379Z" fill="#979797"/>
<rect x="219.851" y="265.807" width="6.98788" height="18.4974" rx="2" fill="#BDC7D1"/>
<rect opacity="0.3" x="221.119" y="267.238" width="4.45253" height="11.7861" rx="2" fill="#979797"/>
<rect x="304.993" y="265.807" width="6.98788" height="18.4974" rx="2" fill="#BDC7D1"/>
<rect opacity="0.3" x="306.261" y="267.238" width="4.45253" height="11.7861" rx="2" fill="#979797"/>
<path fill-rule="evenodd" clip-rule="evenodd" d="M185.202 244.775L190.94 228.721L191.959 228.721L186.145 245.109L185.202 244.775ZM202.806 245.107L197.1 228.718L198.105 228.718L203.75 244.778L202.806 245.107Z" fill="white"/>
<path d="M185.202 245.251C185.202 244.699 185.65 244.251 186.202 244.251H203.015C203.567 244.251 204.015 244.699 204.015 245.251V249.998C204.015 250.345 203.834 250.665 203.522 250.817C202.375 251.374 199.239 252.629 194.292 252.629C189.354 252.629 186.603 251.379 185.621 250.82C185.349 250.666 185.202 250.372 185.202 250.06V245.251Z" fill="#BDC7D1"/>
<ellipse cx="194.609" cy="244.942" rx="9.40614" ry="1.94164" fill="#BDC7D1"/>
<path d="M186.329 242.68C185.675 243.335 184.632 245.628 184.85 246.555C183.775 247.549 186.849 246.555 188.346 246.242C189.976 245.902 190.659 246.555 191.018 246.555C191.376 246.555 193.283 247.804 194.408 247.804C195.307 247.804 195.612 246.971 195.652 246.555L196.532 248.514L198.406 247.804L198.906 248.514L198.093 253.426L197.344 256.363L198.906 258.049V261.423H200.405V259.174V255.55L201.158 253.426L200.405 252.052C200.819 250.982 201.649 248.776 201.649 248.514C201.649 248.187 202.848 245.805 203.393 245.587C203.938 245.369 205.465 244.425 204.653 243.119C203.782 241.718 201.594 240.173 201.158 239.955C200.809 239.78 198.222 241.284 196.532 241.266C195.496 241.539 192.49 240.5 192.271 240.5C191.999 240.5 191.29 242.68 191.018 242.68C190.745 242.68 188.673 240.5 188.346 240.5C188.019 240.5 186.983 242.026 186.329 242.68Z" fill="#80C571"/>
<rect x="145" y="130.496" width="255" height="69.4989" rx="2" fill="white"/>
<rect x="158.751" y="152.217" width="223.75" height="41.1968" rx="11" fill="#FAFAFA"/>
<path d="M382.809 160.106H159.51V149.307C159.51 143.103 164.46 138.124 170.629 138.124H371.69C377.858 138.124 382.809 143.103 382.809 149.307V160.106Z" fill="#8D59A4"/>
<path opacity="0.35" d="M382.047 160.73V185.421C382.047 189.527 377.402 192.866 371.69 192.866H170.629C164.917 192.866 160.271 189.527 160.271 185.421V160.73H382.047ZM382.809 160.182H159.51V185.421C159.51 189.855 164.46 193.414 170.629 193.414H371.69C377.858 193.414 382.809 189.855 382.809 185.421V160.182Z" fill="#8D59A4"/>
<path d="M270.626 170.522C277.146 170.522 282.431 165.207 282.431 158.65C282.431 152.094 277.146 146.779 270.626 146.779C264.107 146.779 258.821 152.094 258.821 158.65C258.821 165.207 264.107 170.522 270.626 170.522Z" fill="#FAFAFA"/>
<path d="M267.732 166.156L274.434 166.08V164.778C274.434 164.701 274.434 164.701 274.358 164.624C274.282 164.548 274.282 164.548 274.206 164.548H273.52C273.292 164.548 273.063 164.395 272.987 164.165L271.083 158.727L269.255 164.165C269.179 164.395 268.951 164.548 268.722 164.548H267.961C267.884 164.548 267.884 164.548 267.808 164.624C267.732 164.701 267.732 164.854 267.732 164.854V166.156Z" fill="#F7B548"/>
<path d="M266.666 153.825V152.753C266.666 152.523 266.894 152.294 267.123 152.294L274.891 152.217C275.12 152.217 275.348 152.447 275.348 152.676V153.672H277.328C277.48 153.672 277.557 153.672 277.709 153.749C277.861 153.825 277.937 153.902 278.014 153.978C278.09 154.055 278.166 154.208 278.242 154.361C278.242 154.515 278.318 154.668 278.318 154.821V156.506C278.318 157.119 278.242 157.655 278.09 158.114C277.937 158.574 277.633 159.033 277.328 159.416C277.024 159.723 276.719 160.029 276.262 160.259C275.805 160.489 275.348 160.565 274.891 160.565C274.663 160.948 274.434 161.255 274.129 161.561C273.825 161.867 273.52 162.097 273.216 162.25C272.911 162.48 272.53 162.557 272.149 162.71C271.769 162.786 271.388 162.863 271.007 162.863C270.626 162.863 270.245 162.863 269.941 162.71C269.56 162.633 269.255 162.48 268.874 162.25C268.494 162.02 268.189 161.791 267.961 161.561C267.656 161.255 267.427 160.948 267.199 160.565C266.742 160.565 266.285 160.489 265.828 160.259C265.371 160.029 265.067 159.799 264.686 159.416C264.305 159.033 264.153 158.65 263.924 158.191C263.696 157.731 263.62 157.195 263.62 156.583V154.898C263.62 154.744 263.62 154.591 263.696 154.438C263.772 154.285 263.848 154.208 263.924 154.055C264 153.902 264.076 153.825 264.229 153.825C264.381 153.825 264.457 153.749 264.61 153.749L266.666 153.825ZM275.424 159.416C275.729 159.34 275.957 159.263 276.186 159.033C276.414 158.88 276.643 158.65 276.795 158.421C276.947 158.191 277.1 157.885 277.176 157.578C277.252 157.272 277.328 156.965 277.328 156.583V154.668H275.348L275.424 159.416ZM264.686 156.736C264.686 157.042 264.762 157.425 264.838 157.731C264.914 158.038 265.067 158.344 265.219 158.574C265.371 158.804 265.6 159.033 265.828 159.187C266.057 159.34 266.361 159.493 266.59 159.57L266.514 154.898H264.533L264.686 156.736Z" fill="#F7B548"/>
<path opacity="0.13" d="M272.149 161.255C272.073 161.025 272.225 160.872 272.378 160.795C272.835 160.642 273.596 159.493 273.596 158.65C273.596 158.421 273.749 158.268 273.901 158.268C274.053 158.268 274.206 158.421 274.206 158.65C274.206 159.799 273.292 161.255 272.454 161.484H272.378C272.302 161.561 272.149 161.408 272.149 161.255Z" fill="#BC3A00"/>
<rect x="178.47" y="174.496" width="188.059" height="10.2245" rx="2" fill="#D0B4DC"/>
<path d="M552 0H-1.104V18.355H552V0Z" fill="#C3DAF4"/>
<circle opacity="0.8" cx="539.172" cy="9.05263" r="5.86898" fill="#79A9DA"/>
<path opacity="0.89" d="M541.917 11.6444L541.918 12.8775C540.536 13.5026 538.91 13.6365 537.35 13.1033C537.174 13.0326 536.96 12.97 536.775 12.865L536.775 11.6319C536.785 10.2877 537.931 9.20584 539.349 9.18922C540.059 9.18092 540.689 9.47992 541.159 9.92246C541.657 10.3225 541.937 10.9511 541.917 11.6444Z" fill="#C6DBF1"/>
<path opacity="0.89" d="M541.149 6.38281C541.224 7.47703 540.399 8.39542 539.323 8.42142C538.21 8.45752 537.261 7.64128 537.186 6.54705C537.11 5.45282 537.959 4.60503 539.011 4.50845C540.138 4.39164 541.073 5.28858 541.149 6.38281Z" fill="#C6DBF1"/>
<rect x="145" y="71.308" width="255" height="54.3101" rx="2" fill="white"/>
<rect x="157.197" y="81.5159" width="67.6542" height="10.2245" rx="2" fill="#BDC7D1"/>
<rect x="198.793" y="94.9446" width="80.0524" height="10.2245" rx="2" fill="#DAE4EE"/>
<rect x="198.793" y="107.94" width="146.671" height="10.2245" rx="2" fill="#DAE4EE"/>
<mask id="mask0_3063_164199" style="mask-type:alpha" maskUnits="userSpaceOnUse" x="157" y="94" width="38" height="27">
<rect x="157.021" y="94.6158" width="37.8507" height="25.6943" rx="2" fill="#C4C4C4"/>
</mask>
<g mask="url(#mask0_3063_164199)">
<rect x="171.078" y="88.8979" width="31.2199" height="33.1539" fill="#EFF5FB"/>
<circle cx="164.343" cy="116.326" r="22.6551" fill="#7B83EB"/>
<path fill-rule="evenodd" clip-rule="evenodd" d="M164.619 128.179C171.165 128.179 176.472 122.872 176.472 116.326C176.472 109.78 171.165 104.473 164.619 104.473C158.072 104.473 152.766 109.78 152.766 116.326C152.766 122.872 158.072 128.179 164.619 128.179ZM164.619 133.179C173.927 133.179 181.472 125.634 181.472 116.326C181.472 107.018 173.927 99.4727 164.619 99.4727C155.311 99.4727 147.766 107.018 147.766 116.326C147.766 125.634 155.311 133.179 164.619 133.179Z" fill="#D7E1EC"/>
<path fill-rule="evenodd" clip-rule="evenodd" d="M185.892 118.798C194.096 118.798 200.746 112.148 200.746 103.945C200.746 95.7413 194.096 89.0913 185.892 89.0913C177.689 89.0913 171.039 95.7413 171.039 103.945C171.039 112.148 177.689 118.798 185.892 118.798ZM185.892 120.798C195.2 120.798 202.746 113.252 202.746 103.945C202.746 94.6368 195.2 87.0913 185.892 87.0913C176.585 87.0913 169.039 94.6368 169.039 103.945C169.039 113.252 176.585 120.798 185.892 120.798Z" fill="white"/>
</g>
<rect x="417.089" y="26.5499" width="90.003" height="87.0248" rx="4" fill="white"/>
<rect x="66" y="26.5499" width="62" height="15" rx="7.5" fill="#D7E1EC"/>
<rect x="66" y="49.5499" width="62" height="14.2965" rx="7.14824" stroke="#D7E1EC" stroke-width="2"/>
<rect x="66" y="71.8464" width="62" height="14.2965" rx="7.14824" stroke="#D7E1EC" stroke-width="2"/>
<rect x="66" y="94.1429" width="62" height="14.2965" rx="7.14824" stroke="#D7E1EC" stroke-width="2"/>
</g>
<defs>
<clipPath id="clip0_3063_164199">
<rect width="552" height="280" rx="2" fill="white"/>
</clipPath>
</defs>
</svg>
